<?xml version="1.0" encoding="UTF-8"?>
<svg width="249px" height="70px" viewBox="0 0 249 70" version="1.1" xmlns="http://www.w3.org/2000/svg" xmlns:xlink="http://www.w3.org/1999/xlink">
    <title>编组 3</title>
    <g id="Vega" stroke="none" stroke-width="1" fill="none" fill-rule="evenodd">
        <g id="iPhone-X备份" transform="translate(-40.000000, -595.000000)">
            <g id="编组-3" transform="translate(42.000000, 595.000000)">
                <g id="NCUHOME" transform="translate(78.376000, 13.228000)" fill-rule="nonzero">
                    <polygon id="N" fill="#FD675A" points="5.508 38.772 5.508 15.66 5.616 15.66 14.04 38.772 19.224 38.772 19.224 0.324 13.716 0.324 13.716 23.49 13.608 23.49 5.292 0.324 0 0.324 0 38.772"></polygon>
                    <path d="M34.0429787,39.096 C35.2669787,39.096 36.4099787,38.853 37.4719787,38.367 C38.5339787,37.881 39.4609787,37.224 40.2529787,36.396 C41.0449787,35.568 41.6659787,34.623 42.1159787,33.561 C42.5659787,32.499 42.7909787,31.374 42.7909787,30.186 L42.7909787,30.186 L42.7909787,27.81 L37.2829787,27.81 L37.2829787,29.7 C37.2829787,30.456 37.1749787,31.086 36.9589787,31.59 C36.7429787,32.094 36.4729787,32.49 36.1489787,32.778 C35.7889787,33.066 35.4019787,33.273 34.9879787,33.399 C34.5739787,33.525 34.1869787,33.588 33.8269787,33.588 C32.5669787,33.588 31.6939787,33.21 31.2079787,32.454 C30.7219787,31.698 30.4789787,30.762 30.4789787,29.646 L30.4789787,29.646 L30.4789787,9.99 C30.4789787,8.694 30.7039787,7.623 31.1539787,6.777 C31.6039787,5.931 32.5129787,5.508 33.8809787,5.508 C34.9249787,5.508 35.7529787,5.904 36.3649787,6.696 C36.9769787,7.488 37.2829787,8.424 37.2829787,9.504 L37.2829787,9.504 L37.2829787,11.34 L42.7909787,11.34 L42.7909787,9.18 C42.7909787,7.848 42.5659787,6.615 42.1159787,5.481 C41.6659787,4.347 41.0449787,3.366 40.2529787,2.538 C38.6329787,0.846 36.5269787,0 33.9349787,0 C32.6029787,0 31.3879787,0.225 30.2899787,0.675 C29.1919787,1.125 28.2469787,1.746 27.4549787,2.538 C26.6629787,3.33 26.0509787,4.266 25.6189787,5.346 C25.1869787,6.426 24.9709787,7.596 24.9709787,8.856 L24.9709787,8.856 L24.9709787,30.024 C24.9709787,31.788 25.2499787,33.237 25.8079787,34.371 C26.3659787,35.505 27.0769787,36.432 27.9409787,37.152 C28.8049787,37.872 29.7769787,38.376 30.8569787,38.664 C31.9369787,38.952 32.9989787,39.096 34.0429787,39.096 Z" id="C" fill="#FF9F11"></path>
                    <path d="M57.2859574,39.096 C58.5099574,39.096 59.6619574,38.862 60.7419574,38.394 C61.8219574,37.926 62.7759574,37.278 63.6039574,36.45 C64.4319574,35.622 65.0709574,34.677 65.5209574,33.615 C65.9709574,32.553 66.1959574,31.392 66.1959574,30.132 L66.1959574,30.132 L66.1959574,0.324 L60.6879574,0.324 L60.6879574,29.592 C60.6879574,30.96 60.3639574,31.968 59.7159574,32.616 C59.0679574,33.264 58.2579574,33.588 57.2859574,33.588 C56.3139574,33.588 55.5039574,33.264 54.8559574,32.616 C54.2079574,31.968 53.8839574,30.96 53.8839574,29.592 L53.8839574,29.592 L53.8839574,0.324 L48.3759574,0.324 L48.3759574,30.132 C48.3759574,31.392 48.6099574,32.553 49.0779574,33.615 C49.5459574,34.677 50.1939574,35.622 51.0219574,36.45 C51.8499574,37.278 52.7949574,37.926 53.8569574,38.394 C54.9189574,38.862 56.0619574,39.096 57.2859574,39.096 Z" id="U" fill="#31A0FE"></path>
                    <path d="M77.9909362,38.772 L77.9909362,21.654 L84.7949362,21.654 L84.7949362,38.772 L90.3029362,38.772 L90.3029362,0.324 L84.7949362,0.324 L84.7949362,16.794 L77.9909362,16.794 L77.9909362,0.324 L72.4829362,0.324 L72.4829362,38.772 L77.9909362,38.772 Z M105.499915,39.096 C106.615915,39.096 107.722915,38.898 108.820915,38.502 C109.918915,38.106 110.917915,37.512 111.817915,36.72 C112.681915,35.964 113.383915,35.01 113.923915,33.858 C114.463915,32.706 114.733915,31.32 114.733915,29.7 L114.733915,29.7 L114.733915,9.396 C114.733915,7.848 114.463915,6.48 113.923915,5.292 C113.383915,4.104 112.681915,3.114 111.817915,2.322 C110.917915,1.566 109.918915,0.99 108.820915,0.594 C107.722915,0.198 106.615915,0 105.499915,0 C104.383915,0 103.276915,0.198 102.178915,0.594 C101.080915,0.99 100.099915,1.566 99.2359149,2.322 C98.3359149,3.114 97.6159149,4.104 97.0759149,5.292 C96.5359149,6.48 96.2659149,7.848 96.2659149,9.396 L96.2659149,9.396 L96.2659149,29.7 C96.2659149,31.32 96.5359149,32.706 97.0759149,33.858 C97.6159149,35.01 98.3359149,35.964 99.2359149,36.72 C100.099915,37.512 101.080915,38.106 102.178915,38.502 C103.276915,38.898 104.383915,39.096 105.499915,39.096 Z M105.499915,33.588 C104.491915,33.588 103.618915,33.273 102.880915,32.643 C102.142915,32.013 101.773915,31.032 101.773915,29.7 L101.773915,29.7 L101.773915,9.396 C101.773915,8.064 102.142915,7.083 102.880915,6.453 C103.618915,5.823 104.491915,5.508 105.499915,5.508 C106.507915,5.508 107.380915,5.823 108.118915,6.453 C108.856915,7.083 109.225915,8.064 109.225915,9.396 L109.225915,9.396 L109.225915,29.7 C109.225915,31.032 108.856915,32.013 108.118915,32.643 C107.380915,33.273 106.507915,33.588 105.499915,33.588 Z M126.204894,38.772 L126.204894,15.39 L126.312894,15.39 L131.712894,31.914 L134.466894,31.914 L139.920894,15.39 L140.028894,15.39 L140.028894,38.772 L145.536894,38.772 L145.536894,0.324 L140.190894,0.324 L133.170894,20.682 L133.062894,20.682 L125.988894,0.324 L120.696894,0.324 L120.696894,38.772 L126.204894,38.772 Z M168.239872,38.772 L168.239872,33.264 L157.331872,33.264 L157.331872,21.978 L166.835872,21.978 L166.835872,16.794 L157.331872,16.794 L157.331872,5.508 L168.239872,5.508 L168.239872,0.324 L151.823872,0.324 L151.823872,38.772 L168.239872,38.772 Z" id="HOME" fill="#3C3C3C"></path>
                </g>
                <g id="编组-2">
                    <path d="M35.437606,61.1463415 L15.6521739,50.0712376 L17.8931791,24.9358535 L60.0474308,21.0365854 L60.0474308,47.5039662 L53.9003758,51.1236253 L53.1644434,39.2671273 C52.8118436,37.4084822 52.1500829,36.4791597 51.1791613,36.4791597 C49.7227788,36.4791597 45.4885273,37.1120301 44.3697409,40.6792445 C43.6238833,43.0573874 43.517966,48.2912516 44.0519891,56.3808371 L35.437606,61.1463415 Z" id="路径-24" fill="#FFEEEC"></path>
                    <path d="M60.0474308,20.195122 L60.0474308,46.9852953 L52.9201305,51.363055 C52.9201305,43.9452626 52.9201305,39.8718194 52.9201305,39.1427253 C52.9201305,38.0490843 51.220105,35.2126271 47.9111091,36.6039649 C45.7051118,37.5315235 44.3533037,39.3165434 43.855685,41.9590246 L43.855685,56.3537411 L36.4268775,61.1463415" id="路径-23" stroke="#FD675A" stroke-width="2.835" stroke-linecap="round" stroke-linejoin="round"></path>
                    <path d="M0.280950581,40.7166865 L23.9214397,54.3697461 L47.7506133,40.5323806 L40.9666311,36.5480996 L29.1917957,43.5353057 C26.6201852,44.7976528 24.5517387,45.2451474 22.9864564,44.8777893 C20.638533,44.3267522 18.7339183,42.2778586 19.1929635,40.0093515 C19.6520087,37.7408445 21.5914917,36.9358764 23.1943983,35.9530993 C24.2630027,35.2979146 27.0531538,33.6497367 31.5648515,31.0085656 L24.1439728,26.7241193" id="路径-22" stroke="#FFBB00" stroke-width="2.835" fill="#FFF4D5" stroke-linecap="round" stroke-linejoin="round" transform="translate(24.015782, 40.546933) rotate(-300.000000) translate(-24.015782, -40.546933) "></path>
                    <path d="M60.0474308,20.368954 L51.7857136,15.632882 C45.6078184,19.1240938 41.5668085,21.3742615 39.662684,22.3833851 C36.8064973,23.8970706 32.9859027,24.1933029 30.8481611,22.7632461 C28.7104195,21.3331893 28.7536632,18.6422499 30.8481611,17.1810885 C32.2444931,16.206981 36.1838902,13.9473534 42.6663526,10.4022056 L36,6.45121951 L11.9525692,20.0619297 L36,33.6585366" id="路径-22" stroke="#31A0FE" stroke-width="2.835" fill="#E5F3FF" stroke-linejoin="round"></path>
                    <line x1="36.1422925" y1="33.6585366" x2="60.0474308" y2="20.195122" id="路径-22" stroke="#FD675A" stroke-width="2.835" stroke-linecap="round" stroke-linejoin="round"></line>
                    <line x1="36.1422925" y1="33.3780415" x2="36.1422925" y2="40.6707244" id="路径-25" stroke="#FFBB00" stroke-width="2.835" stroke-linecap="round"></line>
                </g>
            </g>
        </g>
    </g>
</svg>