<?xml version="1.0" encoding="UTF-8"?>
<svg width="14px" height="14px" viewBox="0 0 14 14" version="1.1" xmlns="http://www.w3.org/2000/svg" xmlns:xlink="http://www.w3.org/1999/xlink">
    <title>学科</title>
    <g id="Vega" stroke="none" stroke-width="1" fill="none" fill-rule="evenodd">
        <g id="iPhone-X备份" transform="translate(-229.000000, -659.000000)" fill="#000000" fill-rule="nonzero">
            <g id="学科" transform="translate(229.000000, 659.000000)">
                <rect id="矩形" opacity="0" x="0" y="0" width="14" height="14"></rect>
                <path d="M6.59085538,0.112570003 C6.84254526,-0.0375233342 7.1571528,-0.0375233342 7.40884268,0.112570003 L13.6139709,3.80771202 C13.8871477,3.97006852 14.0260513,4.27027487 13.9959555,4.5651204 L13.9959555,7.14597607 C13.9959555,7.42320744 13.7698515,7.64759639 13.4905011,7.64759637 C13.2142374,7.64759637 12.9896768,7.4270366 12.9850467,7.15363439 L12.9850467,5.58214601 L11.8892524,6.31581359 L11.8892524,9.19840726 C11.8892524,10.0285697 11.5620575,10.8258014 10.977891,11.4193216 C9.94228824,12.4715755 8.60572786,13 7.0013924,13 C5.39705693,13 4.06049655,12.4715755 3.02489376,11.4193216 C2.44619098,10.8317869 2.11951828,10.0444961 2.11353244,9.22291391 L2.11353244,6.31657941 L0.350229629,5.13719731 C-0.0101478005,4.89596006 -0.107380252,4.41271974 0.128755702,4.05277843 L0.135700884,4.04205677 C0.200522514,3.94632771 0.286179677,3.86668112 0.385727189,3.80694618 L6.59085538,0.112570003 Z M10.8768002,6.99434121 L7.44434024,9.2933705 C7.17575997,9.47334822 6.82393808,9.47334822 6.55535782,9.2933705 L3.1228979,6.99434121 L3.1228979,9.1991731 C3.1228979,9.76742085 3.34668687,10.3126936 3.74642029,10.7185849 C4.58678649,11.5724881 5.66097359,11.9975252 6.99984903,11.9975252 C8.33872447,11.9975252 9.41291156,11.5724881 10.2532778,10.7185849 C10.6492688,10.3167128 10.8727813,9.77809282 10.8768002,9.21602141 L10.8768002,6.99434121 L10.8768002,6.99434121 Z M6.99984903,1.03922738 L1.19831269,4.49389797 L6.99984903,8.38049811 L12.8013854,4.49389797 L6.99984903,1.03922738 Z" id="形状"></path>
            </g>
        </g>
    </g>
</svg>